# xmcd
#
# Track frame offsets:
# 150
# 15787
# 28356
# 44449
# 59392
# 76291
# 91050
# 110396
# 132984
# 151172
# 172465
# 187698
# 199183
# 215316
#
# Disc length: 3216 seconds
#
#
# Revision: 5
# Processed by: cddbd v1.5.2PL0 Copyright (c) Steve Scherf et al.
# Submitted via: FreeRIP 2.945 
#
DISCID=b20c8e0e
DTITLE=Terceira Dimenção - 
DYEAR=1900
DGENRE=Country
TTITLE0=Pode Descer cerveja
TTITLE1=Sereia
TTITLE2=Josefina de carro de novo
TTITLE3=Mariazinha foi
TTITLE4=Tem que pega e se cuida
TTITLE5=Se quiser chorar..ode chorar
TTITLE6=Voce ta boa
TTITLE7=Voce e do jeitinho que pedi a deus
TTITLE8=Seguirei o seu caminho
TTITLE9=Ela me ligou
TTITLE10=Minha bela
TTITLE11=Baila comigo
TTITLE12=Nao soube te amar
TTITLE13=Canto de paz
EXTD=
EXTT0=
EXTT1=
EXTT2=
EXTT3=
EXTT4=
EXTT5=
EXTT6=
EXTT7=
EXTT8=
EXTT9=
EXTT10=
EXTT11=
EXTT12=
EXTT13=
PLAYORDER=
